<svg width="16" height="16" viewBox="0 0 16 16" fill="none" xmlns="http://www.w3.org/2000/svg">
<path fill-rule="evenodd" clip-rule="evenodd" d="M8.00008 13.4999C11.0376 13.4999 13.5001 11.0374 13.5001 7.99988C13.5001 4.96231 11.0376 2.49988 8.00008 2.49988C4.96251 2.49988 2.50008 4.96231 2.50008 7.99988C2.50008 11.0374 4.96251 13.4999 8.00008 13.4999ZM8.00008 14.9999C11.8661 14.9999 15.0001 11.8659 15.0001 7.99988C15.0001 4.13388 11.8661 0.999878 8.00008 0.999878C4.13408 0.999878 1.00008 4.13388 1.00008 7.99988C1.00008 11.8659 4.13408 14.9999 8.00008 14.9999ZM6.44028 4.53931C6.87022 4.18614 7.43441 3.97476 8.00008 3.97476C9.21728 3.97476 10.3395 4.79505 10.3395 6.11552C10.3395 6.49169 10.2615 6.86 10.0421 7.21577C9.83373 7.55373 9.52901 7.82871 9.16718 8.0822C8.94966 8.23458 8.8415 8.33899 8.78838 8.4102C8.75006 8.46157 8.75007 8.48063 8.75008 8.49881L8.75008 8.49966C8.75008 8.91388 8.4143 9.24966 8.00008 9.24966C7.58587 9.24966 7.25008 8.91388 7.25008 8.49966C7.25008 7.70495 7.79375 7.2129 8.30652 6.85367C8.58626 6.65771 8.70787 6.5217 8.7654 6.42842C8.81194 6.35296 8.83952 6.26978 8.83952 6.11552C8.83952 5.81631 8.59583 5.47476 8.00008 5.47476C7.795 5.47476 7.56447 5.55704 7.39239 5.6984C7.22495 5.83593 7.16065 5.98517 7.16065 6.11552C7.16065 6.52973 6.82486 6.86552 6.41065 6.86552C5.99644 6.86552 5.66065 6.52973 5.66065 6.11552C5.66065 5.44243 6.00569 4.89629 6.44028 4.53931ZM8.00008 11.9999C8.55236 11.9999 9.00008 11.5522 9.00008 10.9999C9.00008 10.4476 8.55236 9.99988 8.00008 9.99988C7.44779 9.99988 7.00008 10.4476 7.00008 10.9999C7.00008 11.5522 7.44779 11.9999 8.00008 11.9999Z" fill="#18181B"/>
</svg>
