<svg width="20" height="20" viewBox="0 0 20 20" fill="none" xmlns="http://www.w3.org/2000/svg">
<path fill-rule="evenodd" clip-rule="evenodd" d="M15.625 15C15.625 16.0355 14.7855 16.875 13.75 16.875H6.25C5.21447 16.875 4.375 16.0355 4.375 15L4.375 5C4.375 3.96447 5.21447 3.125 6.25 3.125L9.6967 3.125C10.194 3.125 10.6709 3.32254 11.0225 3.67417L15.0758 7.72747C15.4275 8.07911 15.625 8.55602 15.625 9.0533V15ZM16.4016 6.40165C17.1049 7.10491 17.5 8.05874 17.5 9.0533L17.5 15C17.5 17.0711 15.8211 18.75 13.75 18.75H6.25C4.17893 18.75 2.5 17.0711 2.5 15V5C2.5 2.92893 4.17893 1.25 6.25 1.25H9.6967C10.6913 1.25 11.6451 1.64509 12.3483 2.34835L16.4016 6.40165ZM6.83709 12.2254C6.47097 11.8593 6.47097 11.2657 6.83709 10.8996C7.2032 10.5335 7.7968 10.5335 8.16291 10.8996L9.0625 11.7992V9.0625C9.0625 8.54473 9.48223 8.125 10 8.125C10.5178 8.125 10.9375 8.54473 10.9375 9.0625V11.7992L11.8371 10.8996C12.2032 10.5335 12.7968 10.5335 13.1629 10.8996C13.529 11.2657 13.529 11.8593 13.1629 12.2254L10.6629 14.7254C10.2968 15.0915 9.7032 15.0915 9.33709 14.7254L6.83709 12.2254Z" fill="#18181B"/>
</svg>
