<svg width="56" height="33" viewBox="0 0 56 33" fill="none" xmlns="http://www.w3.org/2000/svg">
<g clip-path="url(#clip0_13133_2013)">
<path fill-rule="evenodd" clip-rule="evenodd" d="M43.2079 12.0383L27.9364 28.0694L19.4735 20.1796L20.3485 18.9493L26.5464 24.6985L26.6239 24.7717C26.908 25.0311 27.2831 25.1667 27.6668 25.1487C28.0505 25.1307 28.4113 24.9606 28.6701 24.6757L29.1668 24.1085L31.523 21.4969L41.9273 10.8491L43.2079 12.0383ZM43.8413 20.0241V16.9231C43.8391 16.8972 43.8391 16.8712 43.8413 16.8453C43.896 15.4732 44.812 15.0158 46.047 15.4137C46.1143 15.4371 46.1773 15.4711 46.2339 15.5143C49.3511 17.9705 52.2541 20.422 55.3485 22.8782L55.3895 22.9193C55.6096 23.0841 55.7785 23.3084 55.8761 23.566C55.9738 23.8236 55.9963 24.1038 55.9409 24.3738C55.8115 24.8283 55.5298 25.2241 55.1434 25.4944L46.7671 32.3002C45.2905 33.4665 43.7502 33.247 43.7502 31.1019C43.7502 30.1459 43.7502 29.1809 43.7502 28.2249H31.8556L39.6851 19.9921L43.8413 20.0241ZM13.9136 15.121C13.9136 15.8711 13.9819 16.795 13.9136 17.5268C13.8981 17.8069 13.846 18.0837 13.7586 18.3501C13.6102 18.8287 13.303 19.2419 12.8882 19.521C12.4811 19.7807 12.0024 19.904 11.521 19.8732C11.191 19.85 10.8658 19.7808 10.5549 19.6674C10.4749 19.6399 10.3972 19.6063 10.3224 19.5667C10.2499 19.5252 10.1799 19.4794 10.1128 19.4295C8.61345 18.2495 7.05941 16.978 5.50082 15.711C4.0516 14.5264 2.59782 13.3418 0.979985 12.052L0.888839 11.9696C0.551502 11.6892 0.288489 11.3294 0.123214 10.9222L0.0958701 10.8308C-0.0154081 10.4642 -0.0295447 10.0748 0.0548545 9.70104C0.138908 9.35964 0.294244 9.04005 0.510584 8.76341C0.7061 8.50459 0.934364 8.27242 1.18962 8.07277C4.00603 5.94595 6.75407 3.46694 9.57048 1.27152C10.1879 0.738764 10.9632 0.425273 11.7762 0.379626C12.0903 0.376383 12.4014 0.44194 12.6877 0.571726C12.98 0.706022 13.2362 0.90828 13.4351 1.16175C13.8431 1.73825 14.0454 2.43601 14.0093 3.1422V5.13638H25.3524L23.6707 6.90187H13.1069C12.9916 6.90068 12.8777 6.87663 12.7717 6.8311C12.6657 6.78558 12.5697 6.71947 12.4892 6.63659C12.4088 6.55371 12.3454 6.45568 12.3028 6.34815C12.2602 6.24061 12.2392 6.12569 12.2411 6.00998C12.2411 5.35135 12.2411 4.68358 12.2411 4.02495V3.1422C12.2708 2.83104 12.2006 2.51849 12.0405 2.25031C12.0147 2.21649 11.9821 2.18845 11.9448 2.16798C11.8911 2.14732 11.8337 2.13798 11.7762 2.14054C11.3558 2.18844 10.9615 2.36947 10.6506 2.65738L2.27881 9.45863C2.14504 9.5594 2.02547 9.67787 1.92334 9.81081C1.85918 9.88999 1.81257 9.98199 1.78663 10.0807C1.77034 10.1498 1.77034 10.2219 1.78663 10.2911V10.3322C1.84913 10.4733 1.94261 10.5984 2.06006 10.6981C3.53663 11.8599 5.07243 13.1085 6.61735 14.3572C8.16228 15.6058 9.54769 16.7493 11.1746 18.0162C11.3137 18.0606 11.4575 18.0882 11.603 18.0985C11.7218 18.1101 11.8411 18.0845 11.9448 18.0254C12.0296 17.9639 12.0907 17.8751 12.118 17.7738C12.1531 17.6594 12.1745 17.5411 12.1818 17.4216V14.22C12.1853 13.9933 12.2759 13.7768 12.4347 13.6157C12.5935 13.4546 12.8083 13.3614 13.034 13.3555H17.523L15.9142 15.0478L15.8504 15.121H13.9136ZM42.7886 7.88981L27.5217 23.921L19.0588 16.0312L34.3302 0L42.7886 7.88981ZM33.1499 11.2744C33.3257 11.7647 33.3526 12.2963 33.2273 12.802C33.102 13.3076 32.8302 13.7646 32.4461 14.1152C32.062 14.4658 31.583 14.6942 31.0696 14.7716C30.5562 14.8489 30.0314 14.7717 29.5617 14.5498C29.092 14.3278 28.6984 13.9711 28.4307 13.5246C28.163 13.0782 28.0333 12.5621 28.0578 12.0416C28.0824 11.5211 28.2602 11.0197 28.5687 10.6006C28.8772 10.1816 29.3027 9.86372 29.7912 9.68732C30.1156 9.57019 30.4597 9.51832 30.8041 9.53469C31.1484 9.55106 31.4862 9.63534 31.7981 9.78272C32.11 9.9301 32.3899 10.1377 32.6218 10.3936C32.8538 10.6496 33.0332 10.9489 33.1499 11.2744ZM38.9741 9.44491L28.7704 19.9738C28.4382 19.6658 27.998 19.5026 27.5461 19.5197C27.0943 19.5369 26.6676 19.733 26.3595 20.0653L23.0145 16.9505C23.3213 16.6172 23.484 16.1754 23.4669 15.7219C23.4499 15.2683 23.2544 14.8401 22.9233 14.531L33.1271 3.97006C33.2915 4.1245 33.4847 4.24472 33.6957 4.32377C33.9066 4.40283 34.1311 4.43915 34.3561 4.43064C34.5811 4.42214 34.8022 4.36897 35.0066 4.27422C35.211 4.17946 35.3947 4.045 35.547 3.87859L38.8967 6.99792C38.589 7.33145 38.4254 7.77367 38.4416 8.22791C38.4578 8.68215 38.6525 9.11148 38.9832 9.42204L38.9741 9.44491Z" fill="#FCFCFC"/>
</g>
<defs>
<clipPath id="clip0_13133_2013">
<rect width="56" height="33" fill="white"/>
</clipPath>
</defs>
</svg>
