<svg width="48" height="48" viewBox="0 0 48 48" fill="none" xmlns="http://www.w3.org/2000/svg">
<path fill-rule="evenodd" clip-rule="evenodd" d="M40.5 37.5H7.50016C6.67174 37.5 6.00017 36.8284 6.00017 36V31.1659L14.4346 25.2121C15.7011 24.3181 17.3873 24.2956 18.6772 25.1556L23.9364 28.6617C27.6313 31.125 32.613 30.2216 35.2078 26.6178L42 17.1841V36C42 36.8284 41.3284 37.5 40.5 37.5ZM41.1582 10.6518L31.5559 23.9884C30.3765 25.6265 28.112 26.0371 26.4325 24.9175L21.1734 21.4114C18.3355 19.5194 14.6259 19.5689 11.8395 21.5358L6.00017 25.6577V12C6.00017 11.1716 6.67174 10.5 7.50016 10.5H40.5C40.7361 10.5 40.9595 10.5546 41.1582 10.6518ZM1.50019 29.973V12C1.50019 8.68629 4.18647 6 7.50016 6H40.5C43.8137 6 46.5 8.68629 46.5 12V36C46.5 39.3137 43.8137 42 40.5 42H7.50016C4.18647 42 1.50019 39.3137 1.50019 36V30.0309C1.49994 30.0116 1.49994 29.9923 1.50019 29.973Z" fill="#FCFCFC"/>
</svg>
