<svg width="48" height="48" viewBox="0 0 48 48" fill="none" xmlns="http://www.w3.org/2000/svg">
<g clip-path="url(#clip0_13133_2005)">
<path fill-rule="evenodd" clip-rule="evenodd" d="M35.3984 15.7837H42.5859V14.4621C41.4609 9.37926 38.6016 9.41241 35.0664 9.45505C34.4844 9.46452 33.957 9.46926 33.9258 9.46926H7.05859C6.44141 9.46926 5.94141 8.86292 5.94141 8.11448C5.94141 7.36603 6.44141 6.7597 7.05859 6.7597H33.9258C34.7188 6.7597 34.8867 6.7597 35.0469 6.75496C38.0703 6.71706 40.7109 6.6839 42.5859 8.82976V8.20922C42.5859 6.69338 42.0742 5.31965 41.25 4.32014C40.4258 3.32064 39.2891 2.70009 38.043 2.70009H6.77344C5.52344 2.70009 4.39063 3.32064 3.56641 4.32014C2.74219 5.31965 2.23047 6.69811 2.23047 8.20922V39.7766C2.23047 41.2924 2.74219 42.6661 3.56641 43.6656C4.39063 44.6652 5.52734 45.2857 6.77344 45.2857H38.0391C39.2891 45.2857 40.4219 44.6652 41.2461 43.6656C42.0703 42.6661 42.582 41.2877 42.582 39.7766V35.2954H35.3945C33.2266 35.2954 31.2539 34.2201 29.8281 32.4911C28.4023 30.7621 27.5156 28.3699 27.5156 25.7408V25.3287C27.5156 22.6997 28.4023 20.3075 29.8281 18.5785C31.2578 16.859 33.2266 15.7837 35.3984 15.7837ZM44.8164 15.8358C45.625 15.9826 46.3477 16.4469 46.8984 17.1195C47.5781 17.9437 47.9961 19.0806 47.9961 20.3312V30.5631C47.9961 31.8705 47.5586 33.0548 46.8516 33.9122C46.3086 34.5706 45.6016 35.0396 44.8164 35.2196V39.7813C44.8164 42.0409 44.0547 44.0967 42.8281 45.5841C41.6016 47.0715 39.9063 47.9953 38.043 47.9953H6.77344C4.91016 47.9953 3.21484 47.0715 1.98828 45.5841C0.761719 44.1015 0 42.0456 0 39.786V8.21395C0 5.95441 0.761719 3.89855 1.98828 2.41113C3.21484 0.923715 4.91016 0 6.77344 0H38.0391C39.9023 0 41.5977 0.923715 42.8242 2.41113C44.0508 3.89855 44.8125 5.95441 44.8125 8.21395V15.8358H44.8164ZM34.4297 21.8423C36.0117 21.8423 37.293 23.396 37.293 25.3145C37.293 27.233 36.0117 28.7867 34.4297 28.7867C32.8477 28.7867 31.5664 27.233 31.5664 25.3145C31.5664 23.396 32.8477 21.8423 34.4297 21.8423Z" fill="#FCFCFC"/>
</g>
<defs>
<clipPath id="clip0_13133_2005">
<rect width="48" height="48" fill="white"/>
</clipPath>
</defs>
</svg>
