<svg width="4" height="17" viewBox="0 0 4 17" fill="none" xmlns="http://www.w3.org/2000/svg">
<path fill-rule="evenodd" clip-rule="evenodd" d="M1.875 3.75C2.91053 3.75 3.75 2.91053 3.75 1.875C3.75 0.839466 2.91053 0 1.875 0C0.839466 0 0 0.839466 0 1.875C0 2.91053 0.839466 3.75 1.875 3.75ZM3.75 8.125C3.75 9.16053 2.91053 10 1.875 10C0.839466 10 0 9.16053 0 8.125C0 7.08946 0.839466 6.25 1.875 6.25C2.91053 6.25 3.75 7.08946 3.75 8.125ZM3.75 14.375C3.75 15.4105 2.91053 16.25 1.875 16.25C0.839466 16.25 0 15.4105 0 14.375C0 13.3395 0.839466 12.5 1.875 12.5C2.91053 12.5 3.75 13.3395 3.75 14.375Z" fill="#18181B"/>
</svg>
